<?xml version="1.0" encoding="utf-8"?>
<!-- Generator: Adobe Illustrator 23.0.3, SVG Export Plug-In . SVG Version: 6.00 Build 0)  -->
<svg version="1.1" id="Layer_1" xmlns="http://www.w3.org/2000/svg" xmlns:xlink="http://www.w3.org/1999/xlink" x="0px" y="0px"
	 viewBox="0 0 396.13 296.78" style="enable-background:new 0 0 396.13 296.78;" xml:space="preserve">
<style type="text/css">
	.st0{fill:#81B29A;}
	.st1{fill:none;}
</style>
<g>
	<g>
		<g>
			<path class="st0" d="M195.51,17.83c-0.12-5.49,3.58-10.43,9-12.04c0.23-0.07,0.48-0.14,0.76-0.2c0.27-0.07,0.54-0.12,0.82-0.16
				c0.25-0.04,0.51-0.08,0.8-0.11l0.22-0.02l7.33,0.02c0.11,0,0.21,0,0.32,0c0.03,0,0.06,0,0.09,0c2.74,0.01,5.37,0.02,7.93,0.04
				l1.04,0.01c8.25,0.06,15.97,0.16,22.97,0.31c10.94,0.24,19.13,0.58,25.04,1.03c11.88,0.91,24.29,3.12,36.87,6.56
				c13.49,3.76,26.26,9.32,37.97,16.52c11.82,7.27,21.18,15.4,27.81,24.16c10.4,13.8,15.66,29.44,15.64,46.49
				c-0.02,15.38-4.43,29.47-13.11,41.87c-7.26,10.35-16.77,18.49-28.35,24.27c8.52,6.18,15.18,12.88,19.87,19.98
				c5.92,8.98,8.91,18.79,8.89,29.15c-0.02,16.64-7.43,32.1-22.01,45.93c-17.56,16.83-44.1,26.04-78.88,27.39l-54.81,0.83
				l-0.52,0.01l-0.56,0.01l-5.79,0.09l-1.05,0.02l-6.97,0.1l-1.04,0.02l-8.89,0.13L195.51,17.83z M246.4,268.75
				c22.28,0,39.86-1.08,52.25-3.22c12.25-2.11,22.52-5.75,30.54-10.82c16.52-10.6,24.57-23.5,24.59-39.42
				c0.01-7.85-2.67-14.91-8.18-21.57c-5.5-6.63-13.87-12.79-24.91-18.31c-6.34,1.08-12.35,1.63-17.89,1.63h-0.07
				c-12.79-0.02-23.34-1.93-31.36-5.7c-9.05-4.24-13.64-10.15-13.63-17.55c0-6.49,4.23-8.8,7.86-8.8c2.43,0,5.46,0.77,9.26,2.35
				l0.09,0.04c10.08,4.48,21.23,6.76,33.13,6.77h0.12c21.49,0,37.23-7.12,48.11-21.76c6.87-9.09,10.35-19.63,10.37-31.36
				c0.02-18.16-7.88-33.35-24.15-46.43c-11.72-9.61-25.91-16.65-42.2-20.96c-16.52-4.37-37.61-6.59-62.66-6.62l-0.02-4.15v4.15
				c-3.4,0-6.16,2.76-6.16,6.16v235.57L246.4,268.75z"/>
			<path class="st0" d="M201.01,286.03l4.68-0.07l0.53-0.01l0.53-0.01l6.96-0.1l0.53-0.01l0.53-0.01l5.82-0.09l0.53,0l0.53-0.01
				l54.72-0.82c33.9-1.31,59.29-10.06,76.19-26.25c13.79-13.09,20.7-27.4,20.72-42.93c0.01-9.59-2.72-18.54-8.2-26.86
				c-5.49-8.31-13.79-15.99-24.93-23.02c14.09-5.52,25.24-14.15,33.47-25.89c8.21-11.74,12.34-24.91,12.36-39.5
				c0.02-16.21-4.92-30.87-14.8-43.98c-6.34-8.38-15.23-16.09-26.67-23.13c-11.45-7.04-23.75-12.39-36.9-16.05
				c-12.38-3.39-24.41-5.53-36.09-6.42c-5.84-0.45-14.12-0.79-24.81-1.02c-6.68-0.14-14.31-0.25-22.88-0.31c-0.18,0-0.35,0-0.53,0
				c-0.18,0-0.35,0-0.53,0c-2.55-0.01-5.18-0.03-7.9-0.04c-0.18,0-0.35,0-0.53,0h-0.53c-2.11,0-4.27-0.01-6.47-0.01
				c-0.19,0.02-0.38,0.04-0.57,0.08c-0.18,0.02-0.36,0.06-0.53,0.1c-0.18,0.04-0.36,0.08-0.53,0.14c-3.57,1.06-6.12,4.32-6.03,8
				 M308.1,158.29c-12.54-0.01-24.14-2.39-34.82-7.13c-3.25-1.35-5.8-2.04-7.66-2.04c-2.48,0-3.72,1.55-3.72,4.66
				c-0.01,5.67,3.73,10.27,11.24,13.79c7.5,3.52,17.37,5.29,29.59,5.31c5.73,0,11.92-0.6,18.58-1.8
				c12.22,5.96,21.38,12.62,27.48,19.99c6.1,7.37,9.15,15.45,9.14,24.22c-0.02,17.29-8.86,31.59-26.52,42.92
				c-8.52,5.39-19.21,9.2-32.06,11.41c-12.85,2.22-30.8,3.31-53.87,3.28h-18.12V33.18c0-5.7,4.62-10.31,10.31-10.31h0.02
				c25.54,0.03,46.78,2.28,63.72,6.76c16.94,4.48,31.52,11.72,43.74,21.73c17.16,13.79,25.73,30.35,25.7,49.67
				c-0.02,12.7-3.75,23.98-11.19,33.83C348.05,150.51,330.86,158.32,308.1,158.29z"/>
		</g>
	</g>
	<g>
		<g>
			<path class="st0" d="M32.77,289.55c-0.31,0-0.63,0-0.94-0.01c-11.93-0.24-12.71-8.51-12.66-11.04c0.05-2.47,1.05-8.39,9.38-9.93
				c15.83-3.11,30.91-7.64,44.77-13.48c10.3-4.34,20.22-9.45,29.51-15.19c-33.66-5.28-59.56-22.89-77-52.33
				C13.85,167.3,7.99,145.51,8.42,122.82c0.4-21.3,6.39-41.8,17.81-60.92c12.43-20.73,29.3-35.68,50.17-44.45
				c16.3-6.94,31.01-10.35,46.27-10.72l42.95-1.06l1.03-0.03l9.44-0.23l1.02-0.03l3.23-0.08c0.11,0,0.22,0,0.32,0
				c1.64,0,3.24,0.3,4.76,0.88c0.28,0.11,0.52,0.21,0.77,0.32c0.22,0.1,0.48,0.23,0.73,0.36c4.36,2.34,7.05,6.84,7.03,11.77
				c-0.15,40.36-1.06,127.71-1.07,128.59l-1.07,141.12l-11.45-0.29l-0.53-0.02l-0.48-0.01l-3.19-0.08l-16.06-0.32
				c-4.43-0.09-7.96-3.76-7.88-8.18l0.29-15.65l0.82-33.65c-23.48,18.42-44.78,32.39-63.32,41.55
				C65.46,283.7,46.75,289.55,32.77,289.55z M146.32,26.95c-23.08,0.59-41.67,3.2-55.26,7.76c-15.8,5.29-29.24,14.79-39.94,28.23
				c-14.1,17.45-21.46,37.65-21.88,60.08c-0.24,13.2,2.27,26.39,7.47,39.19c5.54,13.97,13.73,25.81,24.37,35.2
				c16.81,15.04,37.93,22.9,62.79,23.4l7.67-0.02c7.8-5.9,15.32-12.34,22.34-19.13l0.3-7.75l0.68-36.37l0.73-121.49
				c0.01-2.42-0.92-4.7-2.63-6.42c-1.71-1.72-3.99-2.67-6.41-2.67C146.48,26.95,146.4,26.95,146.32,26.95z"/>
			<path class="st0" d="M184.97,10.53c-0.17-0.09-0.34-0.18-0.51-0.25c-0.17-0.08-0.35-0.15-0.52-0.22c-1.08-0.41-2.27-0.63-3.5-0.6
				l-3.21,0.08l-0.52,0.01l-0.52,0.01l-9.42,0.23l-0.52,0.01l-0.52,0.01l-42.95,1.06c-17.56,0.43-32.4,5.14-44.77,10.4
				C57.87,29.75,41.8,44,29.79,64.03c-11.09,18.58-16.83,38.2-17.22,58.86c-0.41,22.01,5.2,42.86,16.84,62.55
				c16.97,28.66,41.88,45.47,74.74,50.44c3.56,0.54,4.59,5.21,1.54,7.11c-9.71,6.05-19.96,11.35-30.75,15.9
				c-14.19,5.97-29.4,10.55-45.63,13.74c-3.93,0.73-5.93,2.7-5.98,5.93c-0.08,4.43,2.78,6.7,8.59,6.81
				c13.26,0.26,32.01-5.55,56.23-17.43c18.48-9.12,39.49-22.93,63.03-41.43c2.55-2.01,6.29-0.19,6.29,3.04v0.08l-0.83,34.22
				l-0.29,15.64c-0.04,2.14,1.67,3.91,3.81,3.96l3.5,0.07l0.52,0.01l0.52,0.01l6.85,0.14l0.52,0.01l0.52,0.01l3.67,0.07l3.16,0.08
				l0.52,0.01l0.52,0.01l7.23,0.19l1.04-136.9c0,0,0.93-87.75,1.07-128.56C189.81,15.11,187.85,12.07,184.97,10.53z M159.01,157.59
				l-0.68,36.44l-0.3,7.88c-0.04,1.01-0.46,1.97-1.19,2.67c-7.23,6.99-14.85,13.52-22.86,19.57c-0.68,0.51-1.51,0.79-2.37,0.79
				l-7.78,0.02c-26.02-0.51-47.85-8.65-65.5-24.44c-11.19-9.88-19.67-22.14-25.46-36.75c-5.44-13.4-8.02-27.01-7.77-40.83
				c0.44-23.48,8.03-44.34,22.78-62.58c11.26-14.14,25.22-24,41.87-29.58c14.05-4.71,32.88-7.37,56.47-7.97
				c7.44-0.19,13.57,5.82,13.53,13.26L159.01,157.59z"/>
		</g>
	</g>
	<g>
		<line class="st1" x1="184.46" y1="10.28" x2="179.93" y2="283.88"/>
	</g>
	<g>
		<line class="st1" x1="176.7" y1="9.55" x2="172.07" y2="283.7"/>
	</g>
	<g>
		<line class="st1" x1="214.32" y1="9.47" x2="214.23" y2="285.83"/>
	</g>
	<g>
		<line class="st1" x1="223.28" y1="9.51" x2="221.11" y2="285.72"/>
	</g>
	<g>
		<line class="st1" x1="166.24" y1="9.81" x2="164.18" y2="283.55"/>
	</g>
	<g>
		<line class="st1" x1="206.22" y1="285.95" x2="206.22" y2="9.63"/>
	</g>
</g>
</svg>
