<?xml version="1.0" encoding="utf-8"?>
<!-- Generator: Adobe Illustrator 23.0.3, SVG Export Plug-In . SVG Version: 6.00 Build 0)  -->
<svg version="1.1" id="Layer_1" xmlns="http://www.w3.org/2000/svg" xmlns:xlink="http://www.w3.org/1999/xlink" x="0px" y="0px"
	 viewBox="0 0 238 472" style="enable-background:new 0 0 238 472;" xml:space="preserve">
<style type="text/css">
	.st0{fill:none;stroke:#000000;stroke-miterlimit:10;}
	
		.st1{opacity:0.61;fill:none;stroke:#81B29A;stroke-width:5;stroke-linecap:round;stroke-linejoin:round;enable-background:new    ;}
	.st2{fill:#E07A5F;}
	.st3{fill:none;stroke:#E07A5F;}
	.st4{fill:#F2CC8F;}
</style>
<line class="st0" x1="159" y1="50" x2="161" y2="49"/>
<g id="Groupe_12" transform="translate(18.217 -266.369)">
	<path id="Tracé_13" class="st1" d="M90.58,285.81c0,0,106.35,65.96,97.48,103.58C179.19,427,58.17,388.13,55.1,436.27
		s134.12,103.89,120.68,145.68S29.1,568.4,1.34,603.45c-27.76,35.05,63.39,118.71,63.39,118.71"/>
	<g id="Ellipse_18" transform="translate(200 284)">
		<ellipse class="st2" cx="-76.62" cy="24.55" rx="9" ry="8.5"/>
		<ellipse class="st3" cx="-76.62" cy="24.55" rx="8.5" ry="8"/>
	</g>
	<ellipse id="Ellipse_20" class="st4" cx="160.38" cy="405.55" rx="9" ry="8.5"/>
</g>
<ellipse id="Ellipse_20_2_" class="st4" cx="187.6" cy="290.04" rx="9" ry="8.5"/>
<ellipse class="st2" cx="101.55" cy="219.18" rx="9" ry="8.5"/>
<ellipse class="st2" cx="49.55" cy="420.18" rx="9" ry="8.5"/>
<ellipse id="Ellipse_20_1_" class="st4" cx="77" cy="324" rx="9" ry="8.5"/>
</svg>
